<?xml version="1.0" encoding="utf-8"?>
<!-- Generator: Adobe Illustrator 15.1.0, SVG Export Plug-In . SVG Version: 6.00 Build 0)  -->
<!DOCTYPE svg PUBLIC "-//W3C//DTD SVG 1.1//EN" "http://www.w3.org/Graphics/SVG/1.1/DTD/svg11.dtd">
<svg version="1.1" id="Layer_1" xmlns="http://www.w3.org/2000/svg" xmlns:xlink="http://www.w3.org/1999/xlink" x="0px" y="0px"
	 width="847px" height="331px" viewBox="0 0 847 331" enable-background="new 0 0 847 331" xml:space="preserve">
<g id="banner_text">
	<path fill="#010101" d="M476.667,273.631c110.719,0,221.44,0,332.159,0c1.439,0,2.881-0.029,4.32,0.018
		c2.234,0.072,2.818,0.562,2.871,2.285c0.059,1.959-0.531,2.449-3.094,2.545c-0.639,0.023-1.279,0.008-1.92,0.008
		c-0.801,0.002-1.6,0-2.4,0c-221.279,0-442.558,0.002-663.837,0c-1.759,0-3.522,0.031-5.278-0.051
		c-1.669-0.08-2.195-0.754-2.149-2.484c0.043-1.619,0.608-2.207,2.371-2.281c1.597-0.066,3.199-0.037,4.799-0.037
		C255.229,273.631,365.949,273.631,476.667,273.631"/>
	<path fill="#010101" d="M477.162,105.679c110.713,0,221.426,0,332.141,0.007c1.756,0,3.518,0.009,5.266,0.159
		c1.201,0.103,1.42,1.121,1.443,2.125c0.023,0.986-0.094,1.953-1.223,2.317c-0.447,0.144-0.943,0.173-1.42,0.183
		c-1.438,0.025-2.879,0.019-4.318,0.019c-221.588,0.001-443.174,0.001-664.761,0.001c-1.12,0-2.24,0.02-3.359-0.006
		c-3.048-0.066-3.65-0.499-3.592-2.525c0.052-1.805,0.626-2.207,3.363-2.27c1.439-0.033,2.88-0.01,4.32-0.01
		C255.735,105.679,366.449,105.679,477.162,105.679"/>
	<g id="MC_OHIO">
		<path fill="#010101" d="M777.672,142.15c0-4.308-0.002-8.615,0.002-12.924c0-1.15,0.164-2.24,1.289-2.891
			c1.863-1.08,4.023-0.049,4.291,2.08c0.098,0.787,0.076,1.592,0.076,2.389c0.004,7.499,0.004,14.998,0,22.498
			c-0.002,0.796-0.006,1.597-0.076,2.389c-0.102,1.116-0.789,1.712-1.877,1.759c-0.787,0.032-1.592-0.004-2.367-0.131
			c-0.674-0.11-1.15-0.593-1.193-1.299c-0.09-1.43-0.141-2.864-0.15-4.296c-0.02-3.19-0.006-6.383-0.006-9.574H777.672z"/>
		<path fill="#010101" d="M144.376,138.203c-0.853,2.594-1.381,5.14-1.299,7.85c0.096,3.188,0.004,6.385-0.091,9.575
			c-0.038,1.282-0.831,1.835-2.285,1.859c-1.489,0.024-2.343-0.511-2.36-1.749c-0.039-2.869-0.375-5.83,0.207-8.585
			c0.605-2.867,0.717-5.693,0.653-8.538c-0.077-3.375,0.356-6.66,1.017-9.94c0.295-1.467,0.704-1.756,2.255-1.909
			c1.95-0.193,3.372,0.309,4.177,2.305c1.612,3.992,2.981,8.059,4.09,12.215c0.409,1.533,0.734,3.09,1.121,4.63
			c0.162,0.646,0.511,1.157,1.405,1.313c1.385-4.338,2.774-8.717,4.184-13.09c0.537-1.666,1.087-3.33,1.693-4.975
			c0.846-2.296,1.019-2.398,3.437-2.402c0.637-0.003,1.283,0,1.91,0.098c0.876,0.139,1.423,0.699,1.501,1.59
			c0.084,0.951,0.078,1.91,0.118,2.867c0.131,3.17-0.035,6.324,0.772,9.494c0.537,2.104,0.115,4.444,0.201,6.676
			c0.105,2.693-0.244,5.414,0.672,8.063c0.365,1.054-0.346,1.817-1.5,1.913c-2.012,0.167-2.707-0.345-3.111-2.031
			c-0.56-2.346-0.907-4.664-0.862-7.075c0.069-3.649,0.018-7.3,0.018-10.988c-1.485,0.185-1.579,1.246-1.866,2.094
			c-1.532,4.524-3.03,9.062-4.543,13.593c-0.303,0.905-0.591,1.817-0.945,2.702c-0.457,1.137-1.25,1.808-2.568,1.708
			c-1.271-0.096-2.057-0.761-2.418-1.953c-1.708-5.628-3.409-11.259-5.124-16.885C144.795,138.496,144.607,138.41,144.376,138.203"
			/>
		<path fill="#010101" d="M357.593,147.232c1.209-1.847,1.734-4.025,2.229-6.107c0.964-4.053,2.453-7.916,3.765-11.842
			c0.814-2.437,1.014-2.504,3.356-2.521c0.638-0.006,1.282,0.008,1.914,0.084c0.874,0.104,1.453,0.584,1.601,1.494
			c0.025,0.158,0.08,0.316,0.071,0.472c-0.412,6.558,1.335,12.994,1.078,19.549c-0.093,2.377-0.202,4.774,0.625,7.113
			c0.387,1.092-0.288,1.847-1.417,1.991c-1.896,0.242-2.601-0.245-3.132-1.972c-0.712-2.312-0.97-4.657-0.922-7.076
			c0.073-3.67,0.019-7.343,0.019-11.032c-1.493,0.099-1.639,1.197-1.842,2.041c-1.153,4.822-2.986,9.408-4.721,14.03
			c-0.279,0.745-0.47,1.525-0.77,2.261c-0.459,1.124-1.22,1.837-2.552,1.746c-1.276-0.088-2.073-0.739-2.437-1.933
			c-1.716-5.635-3.421-11.272-5.141-16.905c-0.041-0.137-0.214-0.232-0.326-0.348c-1.255,1.752-1.429,3.74-1.416,5.809
			c0.025,3.677,0.004,7.354-0.078,11.028c-0.044,1.919-0.805,2.487-2.75,2.354c-1.09-0.075-1.892-0.556-1.92-1.691
			c-0.06-2.394-0.435-4.895,0.108-7.164c0.835-3.492,0.886-6.979,0.736-10.461c-0.147-3.412,1.076-6.599,1.143-9.946
			c0.005-0.279,0.212-0.601,0.413-0.824c1.189-1.319,5.369-0.664,5.847,1.041c1.589,5.666,4.21,11.019,5.157,16.879
			C356.359,146.098,356.504,146.885,357.593,147.232"/>
		<path fill="#010101" d="M218.898,136.928c0,5.336,0.002,10.126-0.001,14.915c-0.001,1.118,0.028,2.239-0.038,3.354
			c-0.113,1.902-1.349,2.7-3.3,2.177c-0.655-0.175-1.158-0.569-1.252-1.267c-0.106-0.786-0.158-1.588-0.159-2.382
			c-0.011-7.828-0.007-15.656-0.006-23.482c0-0.48-0.019-0.963,0.024-1.438c0.235-2.617,2.666-3.773,4.831-2.25
			c1.18,0.829,2.018,1.948,2.716,3.264c2.388,4.492,4.88,8.931,7.428,13.334c0.424,0.733,0.822,1.729,2.279,1.922
			c0-4.467-0.009-8.877,0.006-13.285c0.004-1.276-0.017-2.564,0.143-3.824c0.168-1.318,1.349-2.075,2.842-1.96
			c0.864,0.067,1.51,0.472,1.642,1.412c0.067,0.472,0.114,0.952,0.114,1.428c0.007,8.468,0.009,16.934,0,25.4
			c-0.001,0.635-0.057,1.275-0.16,1.902c-0.116,0.7-0.631,1.096-1.281,1.242c-2.562,0.579-3.709,0.028-5.039-2.354
			c-3.183-5.705-6.366-11.41-9.567-17.106C219.987,137.695,219.677,137.557,218.898,136.928"/>
		<path fill="#010101" d="M410.956,142.154c0-4.311-0.054-8.623,0.022-12.933c0.042-2.397,0.804-3.19,3.139-3.297
			c2.55-0.118,5.116-0.185,7.66-0.028c6.171,0.38,10.107,6.489,7.456,12c-1.625,3.377-2.345,6.228-0.482,9.841
			c1.264,2.451,1.322,5.526,1.888,8.328c0.055,0.274-0.041,0.65-0.203,0.884c-0.765,1.103-4.492,0.578-4.996-0.747
			c-0.507-1.329-0.994-2.661-1.144-4.129c-0.145-1.404-0.618-2.785-1.033-4.151c-0.338-1.11-1.119-1.933-2.114-2.503
			c-3.296-1.89-4.484-1.208-4.531,2.597c-0.029,2.394,0.025,4.791-0.054,7.184c-0.055,1.695-0.675,2.224-2.368,2.306
			c-2.531,0.124-3.197-0.408-3.23-2.897c-0.057-4.149-0.016-8.302-0.016-12.453H410.956z M415.796,135.219c0.013,0,0.025,0,0.038,0
			c0,1.116-0.054,2.237,0.018,3.349c0.056,0.891,0.636,1.457,1.517,1.568c0.788,0.1,1.596,0.121,2.391,0.091
			c2.532-0.096,4.145-1.326,4.544-3.41c0.599-3.137-0.397-5.127-3.118-6.151c-0.745-0.28-1.511-0.557-2.291-0.68
			c-1.324-0.211-2.959,1.047-3.081,2.361C415.725,133.297,415.796,134.261,415.796,135.219"/>
		<path fill="#010101" d="M177.652,142.434c0.29-5,1.258-9.78,5.006-13.505c4.891-4.859,14.22-4.063,18.155,1.55
			c0.443,0.633,0.672,1.425,0.957,2.161c2.212,5.707,2.16,11.388,0.377,17.265c-1.748,5.763-7.524,8.321-11.56,8.476
			c-4.912,0.188-9.58-3.312-11.301-8.054C178.36,147.777,177.316,145.262,177.652,142.434 M182.402,141.908
			c0.935,3.528,1.204,7.209,4.27,9.882c3.176,2.769,7.143,2.406,9.27-1.202c3.146-5.334,3.059-10.889,0.598-16.379
			c-1.003-2.238-2.855-3.632-5.656-3.695c-2.946-0.066-5.076,1.119-6.166,3.619C183.651,136.583,183.157,139.284,182.402,141.908"/>
		<path fill="#010101" d="M818.936,141.921c0,1.435,0.037,2.87-0.006,4.304c-0.186,6.043-3.535,9.72-9.447,11.524
			c-3.053,0.933-5.717,0.289-8.307-0.694c-2.75-1.044-4.574-3.44-5.678-6.165c-2.307-5.697-2.305-11.494-0.117-17.21
			c1.18-3.084,3.568-5.318,6.375-6.89c4.855-2.721,11.549-0.822,14.854,3.75c1.676,2.315,2.52,4.729,2.35,7.556
			c-0.076,1.271-0.014,2.55-0.014,3.825H818.936z M814.104,142.029c0.219-2.801-0.133-5.402-1.572-7.883
			c-2.545-4.389-8.084-4.975-11.037-0.885c-4.264,5.906-3.148,13.471,0.635,18.276c1.592,2.024,5.107,2.867,6.939,1.617
			c1.701-1.161,3.293-2.528,4.061-4.594C813.918,146.432,814.336,144.261,814.104,142.029"/>
		<path fill="#010101" d="M732.545,141.998c0,1.275-0.084,2.558,0.016,3.824c0.229,2.882-0.938,5.324-2.447,7.586
			c-2.463,3.688-7.754,5.346-12.219,4.549c-6.164-1.099-8.859-5.372-9.992-10.76c-0.881-4.189-0.795-8.546,0.707-12.719
			c1.189-3.311,3.547-5.714,6.395-7.501c4.609-2.892,11.76-1.128,14.98,3.229c1.787,2.422,2.82,4.938,2.58,7.967
			C732.463,139.441,732.547,140.722,732.545,141.998 M727.721,141.666c0.195-2.615-0.197-5.216-1.66-7.676
			c-2.459-4.131-7.867-4.759-10.77-0.968c-4.543,5.935-3.367,13.846,0.545,18.648c1.637,2.008,5.174,2.712,6.977,1.389
			c1.789-1.312,3.4-2.792,4.135-5.114C727.59,145.909,727.797,143.9,727.721,141.666"/>
		<path fill="#010101" d="M514.746,142.161c0-1.913-0.396-3.929,0.068-5.722c2.113-8.155,7.268-11.611,15.613-10.464
			c3.383,0.464,5.576,2.971,7.221,5.805c0.709,1.222,1.293,2.628,1.496,4.015c0.645,4.424,0.904,8.848-0.43,13.25
			c-1.686,5.574-5.736,8.275-11.104,9.283c-3.895,0.732-9.328-2.256-11.195-5.948c-1.16-2.294-1.967-4.706-1.852-7.343
			c0.041-0.957,0.006-1.917,0.006-2.876H514.746z M534.734,141.911c0.158-2.573-0.695-4.979-1.828-7.284
			c-0.941-1.918-2.402-3.387-4.412-4.207c-0.574-0.234-1.328-0.58-1.807-0.389c-2.199,0.877-4.342,1.689-5.717,4.021
			c-1.764,2.99-1.498,6.127-1.609,9.306c-0.109,3.076,1.264,5.56,2.965,7.911c2.457,3.396,7.227,3.357,9.729-0.264
			C533.926,148.298,534.814,145.278,534.734,141.911"/>
		<path fill="#010101" d="M307.21,141.559c0.15-1.94-0.19-4.153,0.564-6.37c1.235-3.635,3.271-6.489,6.647-8.405
			c1.015-0.575,2.002-0.946,3.153-0.936c0.959,0.009,1.923,0.05,2.878-0.019c4.822-0.345,7.781,2.387,9.947,6.192
			c1.186,2.083,1.859,4.401,1.802,6.875c-0.081,3.496,0.287,6.986-0.902,10.432c-1.893,5.487-5.96,8.164-11.348,9.028
			c-3.987,0.64-9.248-2.484-11.024-6.266c-1.018-2.169-1.844-4.42-1.726-6.9C307.254,144.074,307.21,142.953,307.21,141.559
			 M312.068,141.48c-0.474,4.092,0.837,7.536,3.564,10.499c1.02,1.109,2.222,1.628,3.766,1.726c3.026,0.192,4.744-1.558,6.029-3.865
			c1.75-3.143,2.45-6.6,1.82-10.129c-0.589-3.308-1.701-6.498-4.688-8.547c-0.908-0.623-1.921-1.371-3.05-1.15
			c-2.024,0.395-4.025,0.959-5.218,2.934C312.695,135.591,311.615,138.357,312.068,141.48"/>
		<path fill="#010101" d="M605.812,141.988c0,4.31,0.012,8.62-0.01,12.93c-0.004,0.946,0.018,2.03-1.15,2.358
			c-1.42,0.399-2.885,0.499-3.957-0.794c-0.502-0.604-0.832-1.354-1.209-2.056c-3.166-5.883-6.32-11.772-9.504-17.646
			c-0.123-0.228-0.477-0.438-0.742-0.464c-0.727-0.065-0.66,0.578-0.664,0.992c-0.027,4.949-0.016,9.896-0.035,14.846
			c-0.006,1.273-0.029,2.552-0.141,3.82c-0.086,0.982-1.006,1.553-2.1,1.419c-0.674-0.083-1.273-0.384-1.422-1.063
			c-0.168-0.77-0.215-1.58-0.217-2.372c-0.016-7.822-0.014-15.644-0.002-23.466c0-0.794,0.055-1.596,0.174-2.379
			c0.105-0.698,0.643-1.084,1.295-1.227c2.516-0.554,3.652-0.078,5.049,2.34c2.705,4.688,5.338,9.418,8.002,14.129
			c0.471,0.831,0.91,1.68,1.436,2.473c0.123,0.185,0.58,0.294,0.811,0.219c0.209-0.068,0.441-0.43,0.455-0.674
			c0.057-1.114,0.049-2.232,0.049-3.35c0.006-3.99-0.012-7.981,0.02-11.971c0.006-0.783,0.088-1.601,0.336-2.334
			c0.217-0.644,0.9-0.826,1.572-0.83s1.363,0.16,1.59,0.803c0.256,0.729,0.354,1.545,0.359,2.324
			c0.033,3.99,0.016,7.981,0.016,11.973H605.812z"/>
		<path fill="#010101" d="M296.64,148.363c0,1.916,0.051,3.834-0.015,5.748c-0.061,1.765-0.769,2.569-2.411,3.104
			c-1.836,0.599-3.859-0.04-5.64,0.88c-2.902-0.691-6.095-0.099-8.742-1.886c-2.733-1.846-4.968-4.334-5.633-7.503
			c-1.154-5.502-1.425-11.166,1.519-16.277c1.696-2.945,4.269-4.963,7.844-5.775c3.667-0.833,7.183-1.294,10.766,0.158
			c1.085,0.439,1.389,1.227,1.303,2.256c-0.129,1.553-1.132,2.5-2.513,2.057c-1.574-0.506-3.137-0.463-4.726-0.529
			c-3.38-0.141-5.981,1.441-7.616,4.146c-2.198,3.634-3.004,7.53-1.703,11.898c1.222,4.104,6.148,7.498,10.755,6.974
			c1.399-0.159,1.912-0.654,2.025-2.148c0.06-0.795,0.038-1.597,0.046-2.395c0.032-3.478-0.126-4.083-3.533-4.138
			c-1.631-0.026-2.18-0.734-2.131-1.945c0.061-1.508,0.797-2.396,2.269-2.595c0.786-0.108,1.592-0.102,2.389-0.102
			c6.138-0.008,5.768-0.328,5.765,5.678c0,0.798,0,1.597,0,2.395H296.64z"/>
		<path fill="#010101" d="M765.162,142.626c0,4.158,0.041,8.317-0.018,12.476c-0.027,1.908-0.82,2.496-2.744,2.364
			c-1.094-0.075-1.875-0.567-1.922-1.7c-0.09-2.236-0.062-4.476-0.1-6.714c-0.023-1.438-0.023-2.877-0.135-4.31
			c-0.068-0.894-0.709-1.48-1.578-1.499c-2.715-0.058-5.434-0.072-8.146,0.004c-1.146,0.031-1.613,0.918-1.645,1.975
			c-0.051,1.758-0.043,3.518-0.059,5.277c-0.012,1.599,0.031,3.2-0.049,4.797c-0.084,1.691-0.738,2.225-2.449,2.186
			c-1.451-0.033-2.137-0.585-2.25-1.896c-0.068-0.795-0.055-1.599-0.055-2.397c-0.006-7.358-0.004-14.716-0.002-22.073
			c0-0.641-0.012-1.281,0.027-1.92c0.111-1.779,0.662-2.351,2.264-2.395c1.713-0.047,2.383,0.488,2.463,2.173
			c0.082,1.756,0.027,3.519,0.055,5.276c0.016,1.119,0.014,2.24,0.123,3.351c0.088,0.888,0.697,1.493,1.572,1.512
			c2.715,0.06,5.434,0.075,8.146-0.001c1.137-0.033,1.623-0.906,1.658-1.969c0.053-1.598,0.045-3.197,0.061-4.797
			c0.014-1.119-0.027-2.242,0.049-3.357c0.129-1.902,2.188-2.912,3.838-1.871c0.355,0.223,0.693,0.721,0.746,1.129
			c0.143,1.104,0.162,2.228,0.168,3.344c0.018,3.679,0.006,7.357,0.006,11.037H765.162z"/>
		<path fill="#010101" d="M551.072,139.277c0-3.357-0.045-6.715,0.018-10.072c0.037-1.926,0.797-2.508,2.719-2.393
			c1.088,0.064,1.848,0.533,1.947,1.67c0.098,1.111,0.096,2.234,0.098,3.352c0.01,4.796,0.059,9.594-0.02,14.389
			c-0.033,2,0.371,3.811,1.529,5.423c2.107,2.93,6.732,2.667,8.367-0.558c1.082-2.137,1.715-4.43,1.662-6.904
			c-0.088-3.995-0.027-7.994-0.021-11.991c0-1.118-0.025-2.241,0.053-3.354c0.107-1.551,0.865-2.109,2.594-2.029
			c1.41,0.066,2.088,0.607,2.1,2.038c0.047,6.075,0.107,12.151-0.033,18.223c-0.039,1.713-0.635,3.446-1.174,5.105
			c-0.719,2.22-2.141,3.914-4.385,4.787c-2.844,1.106-5.592,1.994-8.773,0.744c-4.217-1.656-6.439-4.267-6.693-8.835
			c-0.02-0.319-0.008-0.641-0.008-0.961c0-2.877,0-5.754,0-8.633H551.072z"/>
		<path fill="#D3BC2A" d="M677.406,152.74c0.146-2.98,1.232-5.131,1.943-7.354c0.465-1.453,0.078-2.393-1.064-3.309
			c-1.717-1.373-3.641-2.533-5.191-4.398c0.598-0.33,0.965-0.695,1.357-0.723c1.271-0.094,2.553-0.082,3.83-0.075
			c4.207,0.021,3.84-0.122,5.176-3.504c0.629-1.589,0.896-3.378,2.381-4.759c1.586,1.503,1.838,3.476,2.32,5.219
			c0.615,2.23,1.797,3.162,4.066,3.146c1.586-0.01,3.176,0.297,4.756,0.51c0.24,0.031,0.566,0.285,0.637,0.504
			c0.08,0.251,0.018,0.691-0.16,0.852c-0.828,0.744-1.67,1.489-2.59,2.108c-4.51,3.034-3.264,2.946-2.43,7.064
			c0.277,1.375,1.17,2.641,0.734,4.143c-1.885,0.501-2.77-1.14-3.988-1.954c-4.219-2.821-2.9-3.096-7.365-0.219
			C680.51,150.833,679.18,151.636,677.406,152.74"/>
		<path fill="#010101" d="M384.031,141.798c0-4.158-0.045-8.317,0.019-12.475c0.032-2.031,0.531-2.506,2.625-2.541
			c3.517-0.06,7.037-0.022,10.555,0.018c0.795,0.008,1.562,0.181,1.928,1.093c0.45,1.126-0.141,2.487-1.294,2.556
			c-2.231,0.133-4.472,0.092-6.705,0.195c-1.769,0.082-2.18,0.547-2.31,2.359c-0.035,0.478-0.024,0.959-0.031,1.438
			c-0.069,4.746-0.03,4.78,4.699,4.841c1.437,0.02,2.877,0.034,4.309,0.135c0.937,0.065,1.34,0.742,1.417,1.623
			c0.098,1.119-0.468,1.929-1.566,1.98c-2.234,0.108-4.476,0.064-6.71,0.169c-1.479,0.069-1.952,0.601-2.1,2.056
			c-0.032,0.317-0.043,0.639-0.041,0.959c0.073,8.205-0.989,7.379,6.912,7.433c1.115,0.008,2.245,0.021,3.337,0.211
			c0.905,0.156,1.211,0.936,1.173,1.812c-0.037,0.872-0.394,1.534-1.319,1.713c-0.468,0.091-0.95,0.142-1.427,0.143
			c-3.519,0.011-7.038,0.051-10.556-0.012c-2.468-0.044-2.825-0.418-2.913-2.75c-0.06-1.599-0.021-3.199-0.022-4.798
			c-0.002-2.72-0.001-5.438-0.001-8.157H384.031z"/>
		<path fill="#010101" d="M484.811,142.283c0.016-2.385,0.061-4.709,0.842-7.061c1.887-5.684,6.018-8.445,11.604-9.303
			c2.02-0.311,4.139-0.092,6.203,0.047c1.484,0.099,2.285,1.072,2.391,2.496c0.08,1.07-0.537,2.024-1.5,2.07
			c-1.748,0.084-3.502,0.041-5.252,0.071c-4.867,0.086-7.338,2.015-8.533,6.661c-0.752,2.934-1.262,5.786-0.451,8.904
			c1.215,4.661,6.051,7.864,10.867,7.458c0.781-0.066,1.555-0.31,2.318-0.515c0.877-0.233,1.594,0.017,2.086,0.729
			c0.582,0.838,0.645,1.785,0.225,2.717c-0.121,0.269-0.391,0.632-0.629,0.661c-3.244,0.408-6.283,1.611-9.807,0.527
			c-6.342-1.95-10.254-6.431-10.361-13.072C484.801,143.876,484.811,143.08,484.811,142.283"/>
		<path fill="#010101" d="M449.119,157.507c-2.007-0.039-2.568-0.516-2.624-2.531c-0.071-2.553-0.104-5.112-0.012-7.663
			c0.076-2.14-0.388-4.073-1.386-5.965c-1.64-3.104-3.157-6.272-4.726-9.415c-0.357-0.714-0.739-1.418-1.054-2.15
			c-0.71-1.646-0.657-3.11,0.128-3.516c1.169-0.602,2.151,0.104,3.166,0.525c1.303,0.543,1.829,1.74,2.353,2.899
			c0.983,2.175,1.898,4.384,2.864,6.566c0.192,0.433,0.472,0.831,0.739,1.226c0.368,0.545,1.257,0.518,1.579-0.103
			c1.467-2.828,3.021-5.604,4.124-8.622c0.892-2.441,2.628-3.227,4.894-2.641c0.837,0.217,1.363,1.066,1.003,1.828
			c-1.158,2.453-2.205,4.982-3.605,7.293c-3.408,5.614-5.352,11.525-4.439,18.17c0.065,0.47,0.022,0.958-0.006,1.436
			C451.988,157.074,451.444,157.552,449.119,157.507"/>
		<path fill="#010101" d="M253.481,143.748c0-3.518,0.049-7.035-0.019-10.552c-0.039-2.062-0.49-2.44-2.598-2.571
			c-0.957-0.061-1.921,0.002-2.876-0.069c-1.737-0.132-2.421-1.104-2.124-2.942c0.139-0.861,0.569-1.468,1.489-1.605
			c0.315-0.047,0.634-0.098,0.951-0.098c5.435-0.002,10.871-0.033,16.306,0.026c1.786,0.019,2.449,0.994,2.208,2.866
			c-0.11,0.859-0.479,1.568-1.415,1.65c-1.43,0.127-2.87,0.125-4.302,0.226c-1.093,0.077-1.782,0.68-1.854,1.8
			c-0.072,1.115-0.07,2.236-0.072,3.355c-0.006,5.436,0,10.87-0.005,16.307c-0.001,1.118,0.021,2.241-0.058,3.354
			c-0.096,1.348-0.74,1.896-2.181,1.992c-0.318,0.022-0.639,0.027-0.958,0.016c-1.748-0.066-2.39-0.565-2.418-2.245
			c-0.065-3.836-0.021-7.673-0.021-11.51C253.516,143.748,253.5,143.748,253.481,143.748"/>
		<path fill="#010101" d="M656.275,139.269c2.02-4.277,3.635-7.727,5.279-11.161c0.658-1.373,3.852-1.932,5.031-0.883
			c0.195,0.174,0.344,0.614,0.266,0.843c-0.314,0.898-0.686,1.781-1.111,2.633c-1.916,3.848-3.812,7.709-5.812,11.514
			c-0.992,1.89-1.461,3.818-1.371,5.951c0.094,2.228,0.061,4.462-0.004,6.69c-0.062,2.114-0.648,2.676-2.492,2.625
			c-1.721-0.048-2.217-0.621-2.273-2.854c-0.053-2.07-0.1-4.146,0.004-6.212c0.117-2.301-0.396-4.364-1.48-6.404
			c-2.092-3.938-4.033-7.954-6.004-11.954c-0.344-0.698-0.574-1.464-0.756-2.224c-0.047-0.205,0.225-0.631,0.451-0.735
			c2.01-0.933,4.359-0.313,5.287,1.554c1.203,2.415,2.205,4.93,3.32,7.389C654.998,136.896,655.469,137.714,656.275,139.269"/>
		<path fill="#010101" d="M626.184,126.75c2.232,0,4.463-0.016,6.693,0.008c0.791,0.01,1.604,0.023,2.369,0.199
			c0.896,0.207,1.209,0.951,1.16,1.821c-0.053,0.865-0.418,1.577-1.359,1.663c-1.424,0.131-2.859,0.134-4.287,0.232
			c-1.082,0.076-1.791,0.646-1.867,1.768c-0.074,1.111-0.07,2.229-0.072,3.344c-0.006,5.418-0.002,10.834-0.004,16.252
			c-0.002,1.115,0.029,2.234-0.049,3.345c-0.129,1.82-2.326,2.831-3.891,1.772c-0.348-0.233-0.658-0.741-0.707-1.156
			c-0.135-1.101-0.152-2.221-0.156-3.333c-0.012-5.417-0.004-10.835-0.006-16.251c0-0.957,0.025-1.914-0.014-2.869
			c-0.104-2.482-0.402-2.807-2.729-2.926c-1.43-0.072-2.865-0.047-4.291-0.152c-0.924-0.069-1.346-0.729-1.422-1.612
			c-0.094-1.099,0.488-1.963,1.557-1.985c3.023-0.064,6.051-0.022,9.074-0.022C626.184,126.814,626.184,126.782,626.184,126.75"/>
	</g>
	<g id="college_promise">
		<path fill="#D2BA2A" d="M512.615,166.746c6.061,0.078,12.137-0.418,18.184,0.408c2.232,0.305,4.404,0.793,6.486,1.62
			c6.596,2.618,10.617,7.38,12.051,14.372c0.816,3.978,0.84,7.898,0.023,11.875c-1.926,9.365-8.789,15.859-18.344,16.969
			c-3.158,0.365-6.375,0.225-9.564,0.355c-1.586,0.066-2.074,0.467-2.078,1.965c-0.02,7.35,0.018,14.697,0.055,22.045
			c0.002,0.635,0.205,1.264,0.238,1.9c0.176,3.453,1.682,5.766,5.307,6.322c0.473,0.07,0.947,0.186,1.393,0.352
			c1.15,0.426,1.123,1.424,1.053,2.389c-0.066,0.932-0.631,1.428-1.551,1.447c-1.598,0.031-3.195,0.027-4.793,0.027
			c-6.709,0.004-13.42,0.004-20.131,0c-0.957,0-1.916-0.008-2.873-0.041c-0.846-0.029-1.559-0.266-1.719-1.256
			c-0.221-1.361,0.209-2.246,1.334-2.682c0.299-0.115,0.605-0.232,0.918-0.275c3.232-0.432,4.588-2.59,5.029-5.527
			c0.189-1.254,0.299-2.533,0.299-3.801c0.02-18.215,0.016-36.428,0.014-54.641c0-1.595-0.104-3.152-0.49-4.736
			c-0.637-2.612-2.025-4.264-4.711-4.767c-0.617-0.115-1.322-0.215-1.787-0.576c-0.857-0.665-0.74-1.715-0.576-2.66
			c0.123-0.707,0.693-1.072,1.379-1.075C502.713,166.737,507.664,166.746,512.615,166.746 M519.316,190.939
			c0,4.161-0.008,8.319,0.006,12.479c0.002,0.959,0.021,1.922,0.133,2.871c0.082,0.709,0.621,1.076,1.314,1.131
			c6.377,0.492,10.828-2.885,11.977-9.191c0.428-2.352,0.789-4.738,0.902-7.123c0.191-4.004-0.555-7.947-1.256-11.872
			c-0.191-1.074-0.77-2.093-1.246-3.103c-0.941-2.008-2.543-3.307-4.678-3.798c-4.83-1.111-7.227,0.021-7.162,5.167
			C519.363,181.979,519.318,186.459,519.316,190.939"/>
		<path fill="#D2BB2A" d="M694.436,201.264c-1.332,0.379-1.25,1.678-1.557,2.641c-2.473,7.768-4.9,15.549-7.322,23.33
			c-1.9,6.105-3.771,12.219-5.662,18.324c-0.236,0.762-0.484,1.525-0.801,2.256c-0.273,0.633-0.82,0.947-1.527,0.906
			c-0.668-0.039-1.291-0.246-1.549-0.91c-0.463-1.189-0.881-2.398-1.27-3.615c-4.041-12.631-8.072-25.264-12.102-37.898
			c-0.465-1.463-0.803-2.982-1.703-4.293c-1.273,0.854-0.924,1.883-0.928,2.75c-0.029,10.555-0.031,21.109-0.002,31.666
			c0.002,1.27,0.25,2.537,0.344,3.809c0.215,2.92,1.578,4.787,4.625,5.199c0.453,0.062,0.922,0.271,1.309,0.527
			c0.604,0.393,0.719,1.076,0.537,1.689c-0.117,0.389-0.512,0.746-0.867,0.996c-0.232,0.162-0.617,0.137-0.934,0.139
			c-4.318,0.008-8.637,0.014-12.955-0.008c-0.814-0.004-1.623-0.188-1.766-1.195c-0.158-1.109,0.326-1.832,1.443-2.088
			c0.156-0.035,0.312-0.074,0.467-0.115c0.309-0.08,0.617-0.164,0.928-0.24c1.797-0.441,2.67-1.65,2.801-3.434
			c0.119-1.592,0.264-3.186,0.266-4.779c0.023-12.795,0.014-25.588,0.012-38.383c0-0.959-0.006-1.92-0.035-2.877
			c-0.078-2.641-0.943-4.684-3.904-5.165c-0.463-0.075-0.924-0.274-1.34-0.502c-0.648-0.355-0.775-1.024-0.592-1.642
			c0.113-0.391,0.5-0.753,0.852-1.006c0.23-0.164,0.617-0.144,0.934-0.146c4.797-0.006,9.594,0.007,14.393-0.007
			c1.084-0.003,1.838,0.423,2.188,1.468c0.455,1.363,0.9,2.731,1.338,4.102c3.24,10.203,6.473,20.406,9.725,30.605
			c0.336,1.057,0.777,2.076,1.164,3.1c1.279-0.299,1.404-1.277,1.688-2.17c3.484-10.965,6.971-21.93,10.473-32.889
			c1.514-4.736,1.016-4.196,5.971-4.224c3.838-0.021,7.676,0.011,11.512,0.044c0.859,0.008,1.561,0.296,1.605,1.339
			c0.039,0.923-0.346,1.503-1.277,1.699c-3.502,0.736-4.4,3.197-4.395,6.406c0.035,14.232,0.014,28.465,0.021,42.699
			c0,0.797-0.008,1.613,0.154,2.387c0.309,1.469,1.014,2.686,2.553,3.215c0.754,0.26,1.51,0.518,2.244,0.826
			c0.729,0.307,0.705,0.996,0.693,1.629c-0.012,0.732-0.414,1.203-1.143,1.264c-0.955,0.078-1.916,0.102-2.875,0.104
			c-4.957,0.008-9.914,0.008-14.871-0.002c-0.959-0.002-1.922-0.016-2.873-0.111c-0.729-0.072-1.074-0.609-1.1-1.312
			c-0.025-0.641-0.004-1.289,0.695-1.635c0.141-0.07,0.281-0.172,0.432-0.191c3.973-0.537,4.57-3.295,4.549-6.643
			c-0.059-9.916-0.02-19.83-0.02-29.746c0-2.078,0.023-4.158-0.021-6.236C694.947,202.371,695.227,201.672,694.436,201.264"/>
		<path fill="#D2BB2A" d="M187.483,230.008c0.399,0.238,0.723,0.352,0.937,0.57c2.448,2.512,2.485,2.572,0.634,5.18
			c-2.223,3.135-4.614,6.131-7.444,8.756c-4.652,4.312-10.215,6.777-16.474,6.752c-7.378-0.031-14.135-2.375-19.707-7.494
			c-4.696-4.316-7.966-9.566-10.019-15.566c-1.978-5.781-2.981-11.715-3.039-17.863c-0.062-6.598,0.358-13.105,2.302-19.429
			c2.445-7.955,6.334-15.064,13.154-20.126c8.198-6.083,17.089-7.578,26.629-3.331c2.043,0.909,4.029,1.951,6.08,2.841
			c1.698,0.737,2.705,0.416,3.636-1.142c0.57-0.954,0.911-2.042,1.443-3.021c0.438-0.807,1.262-0.876,2.087-0.8
			c0.995,0.091,1.295,0.767,1.347,1.64c0.009,0.158,0.029,0.318,0.029,0.478c0.003,8.316,0.004,16.632,0.004,24.948
			c0,0.826-0.085,1.643-1.068,1.871c-1.02,0.236-1.96,0.002-2.431-1c-0.473-1.006-0.763-2.1-1.17-3.141
			c-1.87-4.786-4.179-9.33-7.395-13.377c-1.506-1.895-3.211-3.552-5.299-4.802c-6.038-3.616-12.403-2.254-16.296,3.649
			c-1.133,1.717-1.994,3.646-2.747,5.57c-1.108,2.832-1.766,5.802-2.197,8.819c-1.707,11.935-1.839,23.863,0.143,35.783
			c0.448,2.689,1.132,5.316,2.138,7.848c1.076,2.707,2.621,5.125,4.808,7.08c3.428,3.064,7.361,4.318,11.959,3.385
			c3.373-0.684,6.373-2.092,8.979-4.303c2.199-1.865,4.182-3.943,5.888-6.289C185.313,232.229,186.106,230.811,187.483,230.008"/>
		<path fill="#D2BA2A" d="M566.412,187.329c3.676,0,7.359-0.131,11.027,0.034c4.424,0.199,8.424,1.602,11.727,4.749
			c2.055,1.957,3.377,4.299,3.84,7.027c0.51,2.998,0.553,6.066-0.088,9.057c-0.803,3.74-2.74,6.793-6.045,8.863
			c-0.678,0.424-1.408,0.762-2.078,1.191c-1.301,0.834-1.385,1.23-0.672,2.787c0.199,0.434,0.426,0.857,0.65,1.281
			c3.438,6.5,6.877,12.996,10.311,19.498c0.824,1.561,1.691,3.061,3.248,4.062c0.785,0.504,0.705,1.367,0.408,2.148
			c-0.279,0.734-1,0.723-1.604,0.729c-3.516,0.035-7.035-0.002-10.553,0.045c-1.434,0.02-2.443-0.455-3.025-1.834
			c-0.434-1.025-1.014-1.992-1.512-2.994c-2.986-6.012-5.961-12.029-8.959-18.037c-0.568-1.141-1.227-2.236-1.822-3.365
			c-0.186-0.354-0.434-0.527-0.779-0.336c-0.232,0.129-0.52,0.359-0.562,0.586c-0.123,0.621-0.172,1.262-0.174,1.896
			c-0.012,4.797-0.01,9.594,0,14.391c0.002,0.797,0.016,1.602,0.115,2.391c0.24,1.91,1.119,3.295,3.158,3.713
			c0.613,0.125,1.234,0.334,1.781,0.633c0.65,0.357,0.645,1.07,0.564,1.699c-0.088,0.682-0.477,1.168-1.24,1.191
			c-0.957,0.027-1.916,0.057-2.875,0.059c-5.277,0.004-10.553,0.006-15.83-0.006c-0.797,0-1.602-0.018-2.389-0.131
			c-0.467-0.068-0.818-0.408-0.934-0.936c-0.141-0.65-0.117-1.279,0.328-1.787c0.193-0.221,0.537-0.381,0.834-0.43
			c3.645-0.602,4.443-3.17,4.441-6.328c-0.006-14.072,0.002-28.143-0.014-42.215c-0.002-0.791-0.104-1.594-0.266-2.371
			c-0.41-1.984-1.26-3.613-3.473-4.11c-1.135-0.254-2.229-0.657-1.855-2.189c0.311-1.273,1.414-1.078,2.32-1.085
			c3.998-0.028,7.996-0.012,11.994-0.012V187.329z M569.521,216.752c1.65,0,2.773,0.137,3.852-0.025
			c3.686-0.549,6.232-2.59,6.938-6.301c0.9-4.725,1.111-9.521-0.332-14.189c-1.23-3.98-3.371-5.297-7.553-5.059
			c-2.051,0.117-2.809,0.801-2.867,2.997c-0.09,3.35-0.035,6.705-0.037,10.057C569.518,208.205,569.521,212.178,569.521,216.752"/>
		<path fill="#D3BB2A" d="M598.963,218.492c0.129-6.332,0.945-11.666,3.035-16.754c1.41-3.43,3.393-6.463,5.947-9.186
			c8.803-9.378,23.961-9.292,32.662,1.941c2.373,3.064,4.213,6.432,5.283,10.137c3.018,10.455,2.797,20.818-1.451,30.924
			c-2.5,5.945-6.562,10.605-12.527,13.258c-9.178,4.08-19.785,1.035-26.037-7.242c-3.869-5.119-5.691-11.012-6.537-17.256
			C599.039,222.107,599.045,219.859,598.963,218.492 M634.82,218.85c0-1.439,0.047-2.881-0.008-4.318
			c-0.221-5.764-0.83-11.461-2.869-16.926c-0.793-2.125-1.824-4.076-3.418-5.712c-1.295-1.328-2.82-1.923-4.703-2.001
			c-3.029-0.128-5.238,1.089-6.883,3.542c-1.811,2.705-2.713,5.764-3.494,8.875c-0.744,2.957-0.867,5.992-1.24,9.002
			c-1.037,8.344-0.297,16.574,1.504,24.719c0.617,2.797,1.746,5.502,3.67,7.734c3.385,3.93,8.766,3.926,12.082-0.062
			c0.906-1.092,1.602-2.389,2.225-3.674c0.98-2.021,1.496-4.203,1.945-6.402C634.627,228.746,634.898,223.812,634.82,218.85"/>
		<path fill="#D3BB2A" d="M243.811,218.629c0.287,6.389-1.011,12.734-4.038,18.695c-1.908,3.758-4.499,6.939-7.99,9.383
			c-8.053,5.633-18.714,5.109-26.149-1.348c-3.967-3.443-6.638-7.771-8.227-12.711c-3.28-10.205-3.163-20.408,0.605-30.479
			c1.946-5.203,5.076-9.627,9.726-12.75c8.981-6.031,20.349-4.503,27.793,3.643c5.417,5.93,7.663,13.141,8.265,20.971
			C243.905,215.463,243.811,216.906,243.811,218.629 M231.333,218.924c-0.255-3.346-0.481-6.85-0.808-10.344
			c-0.148-1.582-0.506-3.145-0.748-4.717c-0.367-2.381-0.93-4.709-1.944-6.898c-0.6-1.297-1.328-2.535-2.023-3.787
			c-2.138-3.848-8.91-4.89-12.238-0.324c-1.043,1.434-1.871,2.953-2.489,4.621c-1.797,4.844-2.664,9.857-2.779,14.996
			c-0.092,4.156-0.039,8.314-0.012,12.473c0.028,4.344,0.836,8.574,2.114,12.711c0.613,1.982,1.407,3.92,2.672,5.6
			c3.22,4.279,9.018,4.6,12.41,0.594c2.138-2.527,3.22-5.475,3.973-8.609C230.735,229.926,230.756,224.477,231.333,218.924"/>
		<path fill="#D3BB2A" d="M420.697,222.07c3.358,0,6.719-0.008,10.077,0.006c0.916,0.002,1.514,0.467,1.604,1.404
			c0.083,0.844-0.111,1.6-1.043,1.898c-0.455,0.146-0.927,0.242-1.394,0.35c-1.809,0.414-2.662,1.699-2.928,3.395
			c-0.197,1.256-0.268,2.539-0.284,3.812c-0.04,3.197-0.06,6.398-0.001,9.598c0.029,1.588-0.443,2.803-1.891,3.568
			c-6.977,3.689-14.316,5.467-22.186,3.885c-6.136-1.234-10.726-4.797-14.063-10.01c-3.446-5.381-5.012-11.359-5.478-17.674
			c-0.588-7.961,0.437-15.654,4.012-22.867c2.633-5.311,6.458-9.541,11.979-11.952c5.247-2.291,10.544-2.38,15.781,0.136
			c0.864,0.415,1.682,0.946,2.574,1.283c1.149,0.435,2.186,1.572,3.558,0.931c1.112-0.519,1.244-1.781,1.75-2.76
			c0.2-0.387,0.612-0.731,1.011-0.935c0.638-0.323,1.365-0.149,1.615,0.49c0.279,0.715,0.348,1.547,0.352,2.329
			c0.027,5.44,0.016,10.877,0.013,16.317c-0.001,0.48,0.019,0.969-0.058,1.438c-0.106,0.645-0.356,1.229-1.14,1.297
			c-0.732,0.066-1.236-0.359-1.521-0.938c-0.423-0.857-0.72-1.773-1.078-2.662c-1.139-2.826-2.478-5.547-4.229-8.051
			c-1.197-1.713-2.54-3.301-4.215-4.566c-4.442-3.354-9.846-2.455-12.934,2.181c-2.557,3.838-3.475,8.254-4.007,12.701
			c-0.877,7.318-0.952,14.68-0.025,22.002c0.36,2.84,1.137,5.635,1.847,8.418c0.518,2.027,1.518,3.867,2.753,5.559
			c2.573,3.52,6.083,4.467,10.194,3.574c2.168-0.473,3.439-1.723,3.521-3.975c0.154-4.311,0.116-8.635,0.021-12.949
			c-0.044-1.971-1.167-3.268-3.19-3.629c-0.786-0.141-1.589-0.211-2.359-0.404c-0.703-0.178-0.984-0.762-0.999-1.447
			c-0.019-0.908,0.404-1.547,1.329-1.67c0.789-0.105,1.595-0.096,2.393-0.1c2.88-0.012,5.76-0.004,8.64-0.004V222.07z"/>
		<path fill="#D3BC2A" d="M452.464,219.961c-0.101,0.586-0.292,1.195-0.294,1.807c-0.026,6.232-0.021,12.467-0.022,18.699
			c0,0.48-0.01,0.963,0.044,1.438c0.194,1.697,1.056,2.73,2.656,2.91c6.53,0.732,12.069-0.924,15.656-6.865
			c1.067-1.768,1.909-3.674,2.819-5.535c0.421-0.855,0.692-1.789,1.156-2.617c0.341-0.609,1.012-0.693,1.683-0.535
			c0.531,0.127,0.784,0.523,0.852,1.014c0.064,0.471,0.101,0.963,0.035,1.43c-0.691,4.898-1.367,9.797-2.132,14.684
			c-0.341,2.172-0.619,2.398-2.798,2.404c-11.828,0.025-23.655,0.018-35.483,0c-0.915-0.002-1.979,0.146-2.323-1.117
			c-0.281-1.02,0.185-1.889,1.782-2.254c2.899-0.66,3.843-2.514,3.83-5.227c-0.024-4.955-0.002-9.91-0.001-14.865
			c0.001-8.791,0-17.58,0-26.371c-0.001-0.959-0.018-1.918-0.002-2.877c0.044-2.828-0.725-5.079-3.916-5.689
			c-0.46-0.089-1.003-0.232-1.298-0.548c-0.284-0.302-0.391-0.856-0.402-1.306c-0.012-0.454,0.129-0.987,0.692-1.108
			c0.614-0.132,1.249-0.247,1.876-0.248c11.507-0.015,23.015-0.011,34.522-0.004c0.477,0.002,0.957,0.041,1.428,0.11
			c0.688,0.101,1.172,0.484,1.267,1.196c0.085,0.631,0.121,1.271,0.123,1.909c0.01,4.314,0.024,8.63-0.013,12.945
			c-0.007,0.775-0.193,1.561-0.405,2.311c-0.061,0.215-0.501,0.453-0.765,0.449c-0.451-0.008-1.089-0.053-1.31-0.342
			c-0.361-0.473-0.489-1.145-0.65-1.75c-0.449-1.691-0.801-3.414-1.309-5.09c-1.282-4.236-4.212-6.674-8.513-7.467
			c-2.373-0.438-4.781-0.348-7.162-0.063c-1.001,0.121-1.708,0.816-1.854,1.908c-0.042,0.316-0.075,0.637-0.075,0.955
			c0.002,6.393-0.007,12.785,0.029,19.178c0.008,1.33,0.878,1.881,2.239,1.611c2.738-0.541,4.657-2.15,5.614-4.703
			c0.723-1.928,1.11-3.98,1.631-5.982c0.159-0.611,0.144-1.303,0.434-1.836c0.18-0.332,0.767-0.562,1.195-0.611
			c0.433-0.049,0.98,0.088,1.084,0.684c0.106,0.623,0.223,1.254,0.224,1.885c0.016,8.629,0.013,17.26,0.008,25.891
			c0,0.479-0.025,0.959-0.062,1.436c-0.055,0.686-0.345,1.27-1.081,1.324c-0.92,0.068-1.578-0.498-1.661-1.357
			c-0.248-2.559-0.674-5.07-1.725-7.424C458.493,220.777,456.814,219.832,452.464,219.961"/>
		<path fill="#D3BC2A" d="M796.416,219.805c-0.752,0.945-0.578,1.93-0.582,2.859c-0.02,5.756-0.014,11.512-0.006,17.27
			c0.002,0.797,0.004,1.604,0.127,2.387c0.215,1.348,1.17,2.324,2.553,2.486c6.316,0.742,11.74-0.703,15.457-6.363
			c1.414-2.154,2.506-4.445,3.42-6.844c0.279-0.73,0.613-1.48,1.098-2.08c0.229-0.279,0.873-0.283,1.334-0.301
			c0.549-0.02,0.859,0.412,0.977,0.873c0.115,0.455,0.162,0.963,0.094,1.426c-0.746,5.051-1.49,10.104-2.311,15.145
			c-0.289,1.779-0.725,2.123-2.562,2.129c-9.275,0.029-18.549,0.02-27.822,0.018c-2.879,0-5.756-0.006-8.633-0.047
			c-0.855-0.014-1.553-0.342-1.605-1.361c-0.047-0.891,0.273-1.701,1.174-1.811c4.053-0.49,4.529-3.199,4.512-6.574
			c-0.082-13.91-0.035-27.822-0.035-41.732c0-0.641-0.01-1.279-0.012-1.92c0-2.545-1.066-4.296-3.662-4.895
			c-1.156-0.266-2.246-0.621-1.924-2.147c0.268-1.279,1.381-1.133,2.299-1.134c11.672-0.016,23.344-0.026,35.018,0.005
			c2.199,0.007,2.531,0.346,2.553,2.49c0.049,4.796,0.021,9.593,0.002,14.392c-0.002,0.463-0.135,0.936-0.271,1.385
			c-0.168,0.549-0.699,0.689-1.146,0.623c-0.422-0.062-1.029-0.291-1.162-0.609c-0.359-0.873-0.504-1.836-0.75-2.756
			c-0.373-1.387-0.703-2.787-1.152-4.146c-1.334-4.023-4.207-6.297-8.303-7.091c-2.375-0.461-4.779-0.35-7.164-0.119
			c-1.213,0.117-1.955,0.968-2.023,2.287c-0.096,1.914-0.078,3.836-0.078,5.752c-0.002,4.639-0.008,9.275,0.039,13.912
			c0.016,1.41,0.824,1.992,2.15,1.742c2.707-0.514,4.666-1.945,5.742-4.539c0.863-2.084,1.338-4.252,1.656-6.473
			c0.086-0.602,0.318-1.248,0.684-1.719c0.219-0.281,0.826-0.344,1.258-0.344c0.227,0,0.594,0.305,0.656,0.537
			c0.166,0.604,0.273,1.244,0.273,1.871c0.018,8.795,0.012,17.59,0.004,26.383c-0.002,0.477,0.029,1.004-0.158,1.414
			c-0.172,0.375-0.576,0.797-0.953,0.889c-0.678,0.162-1.285-0.23-1.443-0.91c-0.363-1.545-0.553-3.135-0.947-4.672
			c-0.354-1.385-0.734-2.803-1.375-4.066C801.951,220.547,799.562,219.314,796.416,219.805"/>
		<path fill="#D3BB2A" d="M354.519,219.883c-0.096,0.748-0.279,1.518-0.283,2.289c-0.027,5.598-0.029,11.195-0.01,16.791
			c0.003,0.955,0.056,1.926,0.243,2.857c0.432,2.158,1.387,2.873,3.608,3.092c7.159,0.705,12.455-2.092,15.803-8.443
			c0.964-1.83,1.691-3.787,2.487-5.701c0.255-0.613,0.57-1.102,1.171-1.434c0.644-0.355,1.89,0.09,1.957,0.766
			c0.031,0.316,0.061,0.641,0.018,0.951c-0.762,5.373-1.541,10.744-2.299,16.119c-0.129,0.912-0.595,1.451-1.511,1.541
			c-0.635,0.061-1.275,0.088-1.913,0.088c-11.514,0.004-23.028,0.012-34.542-0.014c-1.038-0.002-2.329,0.377-2.826-1.074
			c-0.359-1.049,0.246-1.879,2.268-2.328c2.218-0.494,3.301-1.822,3.647-3.885c0.209-1.252,0.305-2.535,0.307-3.807
			c0.021-13.111,0.013-26.227,0.012-39.34c0-0.639,0.019-1.281-0.023-1.918c-0.204-3.105-1.12-5.675-4.735-6.181
			c-0.307-0.043-0.633-0.145-0.891-0.311c-0.609-0.39-0.685-1.002-0.594-1.669c0.076-0.556,0.476-0.851,0.924-0.945
			c0.618-0.133,1.27-0.144,1.907-0.145c11.194-0.007,22.388-0.006,33.582-0.002c0.639,0,1.28,0.012,1.914,0.078
			c0.906,0.095,1.472,0.629,1.477,1.543c0.028,5.276,0.027,10.551,0.021,15.827c-0.001,0.684-0.288,1.299-1.017,1.398
			c-0.991,0.137-1.378-0.572-1.568-1.402c-0.357-1.555-0.597-3.145-1.064-4.664c-1.881-6.121-5.178-8.593-11.562-8.749
			c-1.277-0.031-2.562-0.04-3.835,0.049c-1.512,0.106-2.288,0.786-2.631,2.315c-0.209,0.928-0.322,1.895-0.327,2.846
			c-0.028,5.436-0.039,10.875,0.004,16.311c0.017,2.193,0.87,2.752,3.015,2.229c2.513-0.613,4.271-2.082,5.243-4.482
			c0.783-1.934,1.346-3.924,1.56-6.008c0.064-0.629,0.108-1.287,0.333-1.865c0.254-0.658,0.899-0.883,1.577-0.764
			c0.465,0.082,0.944,0.291,1.017,0.844c0.105,0.787,0.203,1.582,0.205,2.373c0.014,8.316,0.01,16.633,0.004,24.947
			c0,0.639-0.009,1.285-0.098,1.914c-0.095,0.67-0.465,1.189-1.199,1.254c-0.93,0.08-1.588-0.379-1.674-1.295
			c-0.225-2.398-0.595-4.76-1.447-7.02C361.318,220.996,359.251,219.744,354.519,219.883"/>
		<path fill="#D3BC2A" d="M741.379,239.061c0-3.199-0.025-6.396,0.01-9.594c0.016-1.393,0.518-1.973,1.504-1.992
			c1.205-0.023,1.656,0.77,1.898,1.764c0.375,1.551,0.686,3.119,1.096,4.66c0.787,2.959,2.01,5.742,3.801,8.225
			c2.459,3.408,5.777,4.957,9.998,4.176c1.986-0.367,3.52-1.434,4.477-3.275c2.572-4.955,2.174-10.754-2.479-14.227
			c-1.535-1.145-3.18-2.139-4.764-3.215c-3.035-2.062-6.229-3.893-8.826-6.568c-6.609-6.805-7.914-18.469-3.021-26.609
			c3.625-6.03,10.613-7.768,17.234-5.912c1.375,0.386,2.656,1.096,4.002,1.597c1.678,0.624,1.943,0.526,3.197-0.98
			c0.301-0.362,0.498-0.822,0.832-1.143c0.662-0.636,2.162-0.155,2.332,0.71c0.031,0.156,0.057,0.317,0.057,0.476
			c-0.006,5.915-0.004,11.829-0.039,17.743c-0.004,0.703-0.486,1.152-1.209,1.223c-0.686,0.066-1.295-0.172-1.537-0.848
			c-0.373-1.053-0.645-2.141-0.975-3.207c-0.762-2.455-1.77-4.809-3.172-6.959c-1.416-2.168-3.182-3.998-5.67-4.976
			c-4.486-1.761-8.574,0.853-9.305,5.347c-0.723,4.439,0.371,8.232,4.375,10.84c3.484,2.268,6.889,4.656,10.381,6.908
			c6.174,3.98,8.934,9.752,9.135,16.945c0.096,3.391-0.244,6.652-1.537,9.854c-2.781,6.885-9.498,12.557-20.34,9.932
			c-1.693-0.408-3.285-1.227-4.928-1.844c-1.682-0.633-1.865-0.586-3.064,1.016c-0.377,0.508-0.629,1.068-1.309,1.309
			c-0.701,0.25-1.859-0.15-1.955-0.85c-0.129-0.941-0.195-1.898-0.205-2.85c-0.025-2.559-0.01-5.117-0.01-7.674H741.379z"/>
		<path fill="#D2BA2A" d="M266.214,248.795c-4.952,0-9.904,0.004-14.855-0.004c-1.117-0.002-2.236-0.02-3.351-0.082
			c-0.713-0.039-1.174-0.461-1.228-1.186c-0.046-0.631-0.036-1.324,0.632-1.656c0.564-0.279,1.185-0.461,1.798-0.623
			c2.195-0.58,3.035-2.166,3.175-4.254c0.064-0.955,0.039-1.916,0.04-2.873c0.002-13.418,0.001-26.836,0-40.254
			c0-0.799,0.004-1.598-0.017-2.396c-0.065-2.482-1.053-4.295-3.608-5.001c-0.596-0.164-1.249-0.352-1.696-0.737
			c-0.283-0.244-0.333-0.879-0.307-1.328c0.027-0.453,0.254-0.928,0.809-1.026c0.467-0.083,0.942-0.17,1.414-0.171
			c6.709-0.01,13.418-0.008,20.126-0.003c0.318,0.001,0.646,0.019,0.95,0.1c0.72,0.192,1.035,0.743,0.942,1.43
			c-0.058,0.428-0.252,1.067-0.555,1.189c-0.873,0.352-1.834,0.481-2.757,0.709c-1.764,0.435-2.706,1.623-2.958,3.363
			c-0.16,1.102-0.291,2.217-0.293,3.326c-0.019,14.057-0.032,28.113-0.001,42.17c0.011,4.938,0.585,5.326,5.543,5.471
			c5.321,0.154,9.172-2.121,11.996-6.496c1.224-1.895,2.097-3.939,2.9-6.025c0.458-1.191,0.852-2.408,1.308-3.602
			c0.329-0.857,1.045-1.203,1.904-1.098c1.02,0.123,1.191,0.867,1.075,1.748c-0.751,5.689-1.478,11.383-2.259,17.068
			c-0.24,1.75-0.712,2.197-2.518,2.211c-6.069,0.047-12.139,0.018-18.209,0.018V248.795z"/>
		<path fill="#D2BA2A" d="M311.337,248.795c-4.954,0-9.908,0.004-14.861-0.004c-1.118-0.002-2.237-0.02-3.353-0.082
			c-0.713-0.041-1.171-0.465-1.227-1.189c-0.048-0.631-0.043-1.305,0.617-1.664c0.414-0.227,0.871-0.41,1.332-0.514
			c2.649-0.584,3.545-2.465,3.678-4.914c0.035-0.639,0.021-1.277,0.021-1.918c0.001-13.582,0.001-27.166,0.001-40.75
			c0-0.639,0.013-1.277-0.013-1.916c-0.107-2.607-1.035-4.581-3.768-5.458c-1.659-0.532-2.105-1.297-1.821-2.152
			c0.411-1.241,1.475-1.023,2.372-1.026c6.552-0.027,13.104-0.017,19.655-0.015c0.319,0,0.637,0.037,0.956,0.051
			c0.766,0.033,1.148,0.513,1.233,1.195c0.109,0.875-0.209,1.484-1.152,1.769c-5.188,1.562-5.394,1.742-5.409,6.784
			c-0.04,14.383-0.019,28.764-0.001,43.146c0.001,0.949,0.078,1.922,0.299,2.84c0.238,0.986,0.946,1.752,1.991,1.824
			c2.385,0.168,4.811,0.432,7.155-0.154c2.529-0.633,4.721-1.959,6.389-4.012c1.21-1.488,2.329-3.047,3.051-4.85
			c0.83-2.076,1.666-4.148,2.51-6.217c0.597-1.461,1.474-2.104,2.379-1.715c1.222,0.523,0.79,1.596,0.683,2.469
			c-0.677,5.539-1.379,11.076-2.133,16.605c-0.175,1.285-0.888,1.828-2.367,1.836c-6.072,0.037-12.145,0.016-18.217,0.016V248.795z"
			/>
		<path fill="#D2BA2A" d="M720.555,217.502c0-5.754,0.004-11.508-0.002-17.262c-0.002-1.277-0.045-2.555-0.049-3.834
			c-0.014-3.217-1.008-5.673-4.664-6.12c-0.311-0.038-0.641-0.127-0.91-0.285c-0.631-0.37-0.688-1.013-0.605-1.651
			c0.062-0.491,0.34-0.891,0.855-0.994c0.465-0.094,0.945-0.154,1.418-0.154c6.713-0.009,13.426-0.011,20.139,0.005
			c0.467,0.001,1.004,0.035,1.377,0.267c0.344,0.214,0.672,0.696,0.713,1.092c0.043,0.415-0.141,1.095-0.441,1.256
			c-0.684,0.364-1.494,0.504-2.262,0.695c-2.367,0.586-3.336,2.294-3.613,4.521c-0.1,0.789-0.061,1.598-0.061,2.396
			c-0.004,13.584-0.004,27.17-0.002,40.754c0,0.639-0.029,1.281,0.016,1.918c0.24,3.377,0.988,4.268,4.352,5.316
			c0.596,0.186,1.25,0.365,1.701,0.754c0.289,0.248,0.398,0.9,0.318,1.32c-0.074,0.396-0.428,0.906-0.785,1.047
			c-0.57,0.223-1.242,0.238-1.873,0.24c-6.393,0.016-12.785,0.01-19.178,0.004c-0.479,0-0.959-0.021-1.436-0.07
			c-0.699-0.072-1.189-0.438-1.264-1.16c-0.088-0.854,0.141-1.795,1.051-1.863c4.947-0.371,5.197-3.877,5.201-7.574
			C720.559,231.246,720.553,224.373,720.555,217.502"/>
	</g>
</g>
<g id="logo">
	<g id="pillar">
		<path fill="#010101" d="M69.069,182.502c0.232,0.012,0.464,0.024,0.695,0.035c9.915,0.001,19.828,0.003,29.743,0.004
			c0.447,0,0.895-0.004,1.341,0c2.156,0.021,2.086,0.025,2.197,2.281c0.093,1.884-0.404,3.675-0.621,5.508
			c-0.014,0.124-0.176,0.229-0.269,0.345c-1.103,0.082-1.685,0.686-1.781,1.775l-0.027,0.02c-0.23,0.056-0.371,0.201-0.428,0.428
			l-0.018,0.018c-0.146,0.146-0.291,0.291-0.434,0.436l-0.007,0.012c-0.43,0.141-0.716,0.432-0.882,0.848
			c-0.596,0.014-1.194,0.041-1.792,0.041c-21.21,0.004-42.421,0.008-63.632,0.01c-0.523,0-1.045-0.021-1.567-0.033
			c-0.189-0.356-0.512-0.426-0.875-0.411l-0.033-0.03c0.004-0.924-0.574-1.408-1.327-1.764l-0.025-0.024
			c-0.001-0.869-0.453-1.298-1.306-1.333c-0.146-0.25-0.361-0.484-0.425-0.754c-0.255-1.082-0.462-2.177-0.689-3.266
			c-0.075-0.364-0.215-0.724-0.219-1.086c-0.029-3.213-0.297-3.019,2.761-3.019c12.235,0.001,24.472,0.001,36.708,0
			C67.13,182.541,68.099,182.516,69.069,182.502"/>
		<path fill="#010101" d="M65.088,208.622c7.029,0,14.058,0,21.088,0.001c0.598,0,1.196-0.016,1.793,0.012
			c0.947,0.045,1.287,0.52,1.129,1.479c-0.063,0.386-0.211,0.715-0.47,0.995c-0.201,0.22-0.416,0.429-0.63,0.638
			c-2.178,2.109-1.438,1.793-4.271,1.795c-12.414,0.012-24.827,0.006-37.241,0.006c-0.523,0-1.047,0.011-1.57-0.008
			c-0.295-0.012-0.681,0.028-0.868-0.135c-1.207-1.058-2.748-1.818-3.256-3.521c-0.267-0.891-0.032-1.207,0.963-1.25
			c0.598-0.025,1.196-0.01,1.794-0.01C50.731,208.622,57.909,208.622,65.088,208.622"/>
		<path fill="#010101" d="M65.071,198.716c8.757,0,17.512-0.002,26.269,0.001c0.599,0,1.197,0.004,1.796,0.018
			c0.308,0.009,0.622,0.077,0.695,0.426c0.065,0.314-0.117,0.594-0.354,0.768c-0.48,0.35-0.975,0.688-1.497,0.969
			c-0.855,0.459-1.737,0.875-2.612,1.3c-0.902,0.439-1.659,1.055-2.015,2.005c-0.224,0.602-0.587,0.813-1.173,0.803
			c-0.449-0.01-0.898,0.004-1.347,0.004c-13.172,0-26.344,0-39.516,0c-0.45,0-0.899-0.017-1.347-0.002
			c-0.583,0.018-1.035-0.188-1.252-0.745c-0.504-1.294-1.545-1.97-2.757-2.471c-0.62-0.257-1.233-0.533-1.839-0.819
			c-0.333-0.158-0.684-0.312-0.958-0.549c-0.385-0.33-0.956-0.674-0.821-1.238c0.162-0.676,0.852-0.459,1.338-0.459
			C46.81,198.714,55.941,198.717,65.071,198.716"/>
		<path fill="#010101" d="M65.239,311.393c-0.688-1.193-0.844-2.045-0.827-2.954c0.022-1.122-0.006-2.244-0.017-3.366
			c-0.004-0.448,0.087-0.931-0.044-1.34c-0.542-1.682-0.337-3.407-0.398-5.115c-0.04-1.117,0.056-2.232-0.336-3.327
			c-0.168-0.472-0.073-1.037-0.095-1.56c-0.082-2.008,0.12-4.018-0.393-6.017c-0.234-0.916-0.055-1.936-0.076-2.907
			c-0.03-1.34-0.006-2.662-0.329-4.003c-0.257-1.063-0.094-2.229-0.122-3.351c-0.031-1.266,0.103-2.535-0.347-3.773
			c-0.146-0.402-0.062-0.89-0.08-1.336c-0.084-2.082,0.106-4.167-0.396-6.242c-0.239-0.992-0.059-2.084-0.077-3.133
			c-0.018-1.041,0.04-2.076-0.317-3.104c-0.187-0.542-0.083-1.184-0.109-1.781c-0.086-1.932,0.054-3.858-0.375-5.793
			c-0.285-1.287-0.083-2.684-0.099-4.029c-0.011-0.895-0.113-1.769-0.263-2.66c-0.22-1.312-0.144-2.677-0.183-4.02
			c-0.033-1.117-0.083-2.213-0.303-3.33c-0.255-1.301-0.12-2.678-0.149-4.023c-0.023-1.042-0.105-2.063-0.293-3.105
			c-0.25-1.381-0.126-2.83-0.157-4.25c-0.02-0.967-0.163-1.92-0.272-2.879c-0.212-1.846-0.122-3.727-0.123-5.593
			c0-0.407,0.292-0.668,0.708-0.737c0.147-0.023,0.297-0.045,0.446-0.045c3.216-0.004,6.433-0.018,9.65,0.003
			c1.004,0.007,1.22,0.231,1.258,1.155c0.024,0.598,0.12,1.24-0.056,1.785c-0.45,1.392-0.311,2.811-0.365,4.222
			c-0.055,1.411-0.031,2.808-0.334,4.226c-0.276,1.291-0.104,2.68-0.127,4.025c-0.018,0.968-0.09,1.915-0.274,2.883
			c-0.236,1.232-0.137,2.529-0.17,3.798c-0.032,1.19-0.062,2.36-0.314,3.553c-0.258,1.222-0.111,2.53-0.138,3.802
			c-0.024,1.115-0.083,2.211-0.302,3.328c-0.255,1.303-0.119,2.68-0.148,4.023c-0.023,1.045-0.102,2.064-0.289,3.107
			c-0.248,1.381-0.13,2.828-0.16,4.248c-0.021,0.969-0.102,1.916-0.276,2.883c-0.233,1.309-0.137,2.679-0.173,4.021
			c-0.023,0.895,0.028,1.783-0.279,2.662c-0.167,0.475-0.119,1.03-0.145,1.55c-0.102,2.081,0.139,4.169-0.396,6.242
			c-0.236,0.914-0.053,1.935-0.076,2.907c-0.031,1.339-0.042,2.658-0.322,4.001c-0.271,1.294-0.105,2.681-0.131,4.026
			c-0.018,0.967-0.088,1.915-0.272,2.883c-0.234,1.232-0.137,2.528-0.174,3.797c-0.036,1.191-0.051,2.36-0.309,3.555
			c-0.263,1.221-0.113,2.529-0.144,3.801c-0.027,1.114-0.043,2.211-0.3,3.329C65.184,308.574,65.303,309.803,65.239,311.393"/>
		<path fill="#010101" d="M63.3,308.549c-0.942-1.197-0.792-2.473-1.06-3.598c-0.793-3.327-1.402-6.699-2.087-10.053
			c-0.983-4.813-1.961-9.627-2.958-14.436c-0.649-3.135-1.341-6.26-1.991-9.395c-0.847-4.079-1.652-8.168-2.509-12.246
			c-0.935-4.443-1.916-8.879-2.862-13.318c-0.542-2.547-1.057-5.102-1.581-7.652c-0.672-3.281-1.328-6.565-2.019-9.844
			c-0.476-2.257-1.009-4.502-1.493-6.759c-0.143-0.66-0.188-1.352,0.034-1.999c0.357-1.037,0.75-1.693,2.077-1.645
			c0.823,0.031,1.647,0.014,2.471,0.007c1.042-0.011,1.642,0.548,2.024,1.465c0.525,1.257,0.728,2.612,0.848,3.921
			c0.13,1.415,0.436,2.798,0.61,4.199c0.275,2.213,0.646,4.41,0.884,6.633c0.277,2.583,0.899,5.128,1.179,7.711
			c0.161,1.482,0.352,2.957,0.553,4.43c0.262,1.914,0.56,3.824,0.808,5.738c0.21,1.625,0.426,3.252,0.534,4.885
			c0.079,1.195,0.34,2.371,0.547,3.525c0.302,1.688,0.272,3.404,0.68,5.088c0.382,1.578,0.382,3.246,0.591,4.871
			c0.227,1.768,0.515,3.529,0.751,5.297c0.196,1.475,0.255,2.959,0.541,4.432c0.396,2.039,0.717,4.111,0.831,6.184
			c0.095,1.721,0.515,3.389,0.589,5.105c0.048,1.109,0.272,2.211,0.43,3.315c0.253,1.765,0.491,3.533,0.781,5.292
			c0.207,1.248,0.171,2.512,0.41,3.775c0.272,1.443,0.39,2.943,0.566,4.42C63.496,308.032,63.407,308.178,63.3,308.549"/>
		<path fill="#010101" d="M67.225,307.447c-0.241-0.556-0.164-1.168-0.099-1.748c0.19-1.697,0.377-3.4,0.705-5.072
			c0.274-1.393-0.048-2.857,0.575-4.193c-0.008-2.918,0.94-5.729,0.966-8.642c0.609-1.632,0.388-3.385,0.734-5.069
			c0.293-1.438,0.354-2.947,0.574-4.418c0.297-1.983,0.585-3.967,0.833-5.954c0.211-1.697,0.429-3.397,0.518-5.104
			c0.067-1.271,0.412-2.488,0.535-3.754c0.261-2.729,0.851-5.426,1.162-8.152c0.169-1.479,0.323-2.955,0.547-4.427
			c0.299-1.981,0.582-3.966,0.835-5.952c0.208-1.623,0.396-3.25,0.53-4.879c0.097-1.189,0.392-2.342,0.517-3.529
			c0.27-2.582,0.799-5.133,1.185-7.701c0.222-1.471,0.323-2.96,0.564-4.426c0.266-1.609,0.335-3.262,0.883-4.816
			c0.196-0.558,0.454-1.105,0.77-1.604c0.331-0.524,0.844-0.838,1.502-0.838c0.972,0,1.944-0.033,2.916,0.01
			c1.091,0.046,1.444,0.436,1.553,1.496c0.193,1.893-0.274,3.708-0.64,5.53c-0.673,3.354-1.381,6.698-2.084,10.046
			c-0.657,3.129-1.337,6.252-1.987,9.383c-0.846,4.076-1.658,8.159-2.513,12.232c-0.717,3.422-1.482,6.833-2.21,10.25
			c-0.606,2.836-1.198,5.674-1.785,8.514c-0.676,3.276-1.339,6.557-2.012,9.834c-0.838,4.077-1.667,8.156-2.524,12.23
			c-0.72,3.418-1.475,6.83-2.212,10.246C67.517,307.154,67.499,307.383,67.225,307.447"/>
	</g>
	<g id="person">
		<path fill="#010101" d="M65.329,37.021c-0.221-0.037-0.444-0.06-0.661-0.114c-0.305-0.077-0.605-0.23-0.5-0.597
			c0.359-1.248,0.171-2.527,0.255-3.79c0.038-0.575-0.248-1.007-0.758-1.27c-0.598-0.309-1.2-0.613-1.811-0.893
			c-0.338-0.155-0.707-0.24-1.048-0.39c-0.264-0.116-0.58-0.235-0.618-0.57c-0.048-0.417,0.331-0.445,0.598-0.52
			c1.077-0.3,2.156-0.604,3.246-0.853c0.506-0.116,0.744-0.387,0.899-0.859c0.213-0.645,0.368-1.289,0.383-1.971
			c0.012-0.522,0.027-1.05,0.115-1.562c0.03-0.177,0.261-0.405,0.44-0.447c0.175-0.041,0.486,0.065,0.586,0.211
			c0.549,0.8,1.082,1.615,1.562,2.458c0.385,0.674,0.93,0.918,1.672,0.868c0.671-0.046,1.344-0.038,1.989-0.286
			c0.497-0.19,1.019-0.23,1.548-0.167c0.296,0.036,0.509,0.426,0.336,0.668c-0.213,0.301-0.446,0.593-0.688,0.874
			c-0.388,0.454-0.814,0.877-1.181,1.347c-0.655,0.837-0.836,1.718-0.225,2.69c0.476,0.757,0.901,1.549,1.309,2.346
			c0.083,0.163,0.036,0.44-0.043,0.626c-0.107,0.256-0.377,0.215-0.584,0.132c-1.039-0.418-2.082-0.829-3.103-1.29
			c-0.555-0.251-0.998-0.191-1.417,0.24c-0.678,0.698-1.37,1.381-2.045,2.081C65.31,36.271,65.222,36.626,65.329,37.021
			L65.329,37.021"/>
		<path fill="#010101" d="M54.576,37.077c-0.035-0.891,0.708-1.542,0.083-2.135c-0.417-0.396-1.012-0.604-1.528-0.896
			c-0.064-0.037-0.132-0.07-0.193-0.113c-0.239-0.165-0.543-0.288-0.487-0.663c0.049-0.328,0.287-0.507,0.569-0.611
			c0.206-0.076,0.432-0.095,0.649-0.14c1.214-0.256,1.523-0.542,1.71-1.646c0.049-0.291,0.026-0.593,0.045-0.89
			c0.02-0.29-0.003-0.644,0.304-0.771c0.507-0.21,0.588,0.299,0.784,0.57c0.172,0.239,0.277,0.526,0.438,0.775
			c0.546,0.838,1.223,1.272,2.251,0.775c0.252-0.122,0.576-0.108,0.87-0.127c0.421-0.026,0.695,0.382,0.511,0.736
			c-0.034,0.065-0.061,0.139-0.109,0.192c-1.167,1.265-1.281,2.608-0.332,4.052c0.12,0.183,0.119,0.461-0.104,0.585
			c-0.175,0.097-0.474,0.192-0.607,0.111c-1.46-0.896-2.757-0.949-3.841,0.591c-0.175,0.249-0.542,0.379-0.781,0.163
			C54.621,37.462,54.592,37.117,54.576,37.077"/>
		<path fill="#010101" d="M58.634,16.974c0.071,0.014,0.154,0.008,0.209,0.045c0.184,0.122,0.438,0.22,0.521,0.396
			c0.672,1.426,1.83,1.78,3.295,1.643c0.594-0.056,0.897,0.487,0.506,0.847c-1.207,1.106-1.234,2.273-0.387,3.581
			c0.099,0.154,0.113,0.455,0.029,0.615c-0.163,0.313-0.505,0.261-0.793,0.184c-0.212-0.057-0.423-0.155-0.608-0.276
			c-0.818-0.535-1.529-0.479-2.132,0.335c-0.088,0.119-0.198,0.227-0.316,0.314c-0.451,0.33-0.778,1.176-1.409,0.802
			c-0.499-0.294,0.103-0.936,0.127-1.438c0.068-1.421-0.02-1.647-1.278-2.274c-0.463-0.231-0.961-0.393-1.429-0.618
			c-0.094-0.045-0.174-0.245-0.157-0.356c0.018-0.117,0.143-0.268,0.256-0.306c0.206-0.071,0.442-0.051,0.657-0.103
			c0.429-0.104,0.86-0.207,1.276-0.353c0.698-0.243,1.097-0.717,1.119-1.494c0.013-0.439,0.084-0.881,0.173-1.313
			C58.313,17.109,58.516,17.051,58.634,16.974"/>
		<path fill="#D1BB2B" d="M69.069,182.502c-3.803-4.841-7.063-10.019-9.496-15.684c-2.309-5.377-3.986-10.935-4.667-16.779
			c-0.295-2.537-0.432-5.045-0.011-7.576c0.109-0.656-0.011-1.348,0.045-2.016c0.103-1.194-0.313-2.215-1.004-3.13
			c-2.651-3.512-2.082-2.72-2.151-6.548c-0.004-0.224,0.004-0.452-0.037-0.669c-0.023-0.121-0.117-0.275-0.219-0.321
			c-0.11-0.048-0.314-0.039-0.398,0.036c-0.333,0.296-0.633,0.628-0.947,0.945c-0.761,0.766-1.299,0.814-2.133,0.148
			c-0.349-0.28-0.658-0.611-0.976-0.927c-0.273-0.272-0.63-0.584-0.961-0.377c-0.266,0.167-0.394,0.606-0.508,0.949
			c-0.092,0.276-0.106,0.592-0.095,0.888c0.143,3.654,0.237,7.294,1.452,10.829c1.731,5.036,3.917,9.859,6.313,14.599
			c0.269,0.532,0.541,1.063,0.777,1.609c0.041,0.094-0.053,0.299-0.148,0.385c-0.089,0.081-0.291,0.139-0.391,0.093
			c-1.646-0.75-3.081-1.833-4.463-2.972c-4.711-3.882-8.11-8.753-10.538-14.311c-1.805-4.129-2.979-8.459-3.612-12.915
			c-0.566-3.987-0.035-7.895,1.167-11.723c1.908-6.08,5.003-11.497,9.161-16.303c2.833-3.275,5.74-6.484,8.604-9.731
			c0.938-1.062,1.846-2.153,2.769-3.229c0.315-0.368,0.408-0.763,0.268-1.243c-0.27-0.933-0.484-1.881-0.751-2.815
			c-0.923-3.232-1.951-6.437-2.768-9.695c-1.023-4.081-1.22-8.262-1.078-12.456c0.079-2.316,0.424-4.6,0.893-6.871
			c0.18-0.869,0.562-1.514,1.321-1.969c0.769-0.461,1.487-1.01,2.275-1.435c0.843-0.454,1.35-1.104,1.66-2.003
			c0.486-1.412,1.085-2.785,1.582-4.194c0.429-1.218,1.062-2.297,1.889-3.281c1.057-1.258,2.093-2.534,3.142-3.799
			c0.241-0.292,0.483-0.575,0.295-0.991V37.02c0.482,0.146,1.06,0.189,0.933,0.945c-0.149,0.882-0.287,1.766-0.426,2.65
			c-0.123,0.784-0.081,0.859,0.937,1.006c0.446,0.063,0.702,0.187,0.589,0.675c-0.05,0.217-0.133,0.428-0.208,0.639
			c-1.459,4.056-1.89,8.258-1.9,12.542c-0.008,3.144,0.236,6.252,0.743,9.351c0.342,2.097,1.115,4.019,2.196,5.831
			c1.686,2.821,3.41,5.629,5.521,8.147c1.03,1.228,1.042,2.296,0.504,3.684c-1.159,2.99-2.196,6.027-3.265,9.052
			c-0.171,0.486-0.243,1.008-0.36,1.514c-0.068,0.114-0.221,0.272-0.19,0.331c0.166,0.301,0.327,0.099,0.477-0.045
			c1.43-0.285,2.542-1.22,3.781-1.881c2.829-1.509,5.622-3.083,8.4-4.682c1.056-0.607,1.87-0.748,2.994,0.077
			c2.573,1.888,5.515,2.943,8.747,3.014c2.403,0.053,4.734-0.364,7.035-1.055c4.321-1.299,8.31-3.305,12.157-5.611
			c3.973-2.382,7.697-5.123,11.288-8.044c0.266-0.216,0.628-0.462,0.237-0.881l-0.018,0.019c0.617,0.144,0.626,0.134,0.471-0.477
			l-0.029,0.024c0.321,0.459,0.618,0.167,0.918-0.03c0.287-0.203,0.582-0.395,0.857-0.612c0.291-0.23,0.584-0.402,0.968-0.259
			c0.006,0.216,0.079,0.46,0.004,0.644c-1.398,3.489-3.064,6.821-5.657,9.614c-0.709,0.765-1.302,1.639-2.002,2.416
			c-0.456,0.506-0.54,1.028-0.375,1.652c0.324,1.23,0.526,2.504,0.974,3.686c0.453,1.195,0.096,1.997-0.781,2.758
			c-1.92,1.667-3.859,3.307-5.946,4.768c-6.035,4.227-12.739,6.887-19.884,8.511c-5.177,1.177-10.41,2.002-15.71,2.352
			c-0.882,0.059-1.323,0.376-1.593,1.22c-1.548,4.844-3.048,9.703-4.223,14.653c-0.605,2.553-0.704,5.181-0.782,7.791
			c-0.088,2.992-0.075,5.99-0.003,8.984c0.061,2.536,0.266,5.07,0.413,7.604c0.137,2.384,0.287,4.767,0.419,7.151
			c0.011,0.214-0.01,0.505-0.282,0.541c-0.187,0.024-0.459-0.045-0.585-0.177c-1.085-1.134-2.151-2.285-3.21-3.443
			c-1.161-1.267-2.303-2.552-3.471-3.813c-0.137-0.148-0.395-0.26-0.595-0.258c-0.347,0.002-0.496,0.298-0.531,0.602
			c-0.229,1.996-0.511,3.963-0.377,6.013c0.492,7.523,2.534,14.72,4.363,21.967c0.362,1.44,1.006,2.825,0.915,4.362
			C69.533,182.526,69.301,182.515,69.069,182.502"/>
		<path fill="#D2BA2A" d="M94.005,75.884c0.046,1.253,0.021,2.068-0.273,2.859c-0.203,0.544-0.153,1.022,0.457,1.312
			c0.096,0.046,0.117,0.249,0.172,0.38c-0.132,0.047-0.301,0.172-0.392,0.13c-0.735-0.343-1.077,0.13-1.451,0.627
			c-1.157,1.543-2.651,2.607-4.52,3.136c-4.538,1.284-9.312-1.495-10.417-6.073c-1.081-4.473,1.789-9.188,6.295-10.102
			c5.417-1.099,9.056,2.476,9.929,5.942c0.072,0.289,0.17,0.578,0.192,0.871C94.03,75.412,94.005,75.862,94.005,75.884"/>
		<path fill="#D2BA2A" d="M143.342,82.745c-0.021,0.13-0.016,0.292-0.078,0.421c-1.396,2.916-2.864,5.786-5.706,7.611
			c-0.626,0.402-1.296,0.755-1.987,1.035c-1.652,0.672-1.705,0.389-2.484-0.884c-1.877-3.063-3.763-6.122-5.723-9.132
			c-0.571-0.877-0.611-1.637-0.158-2.506c0.207-0.398,0.345-0.847,0.615-1.195c1.265-1.629,1.95-3.514,2.54-5.455
			c0.386-1.272,0.604-1.312,1.622-0.394c1.5,1.355,2.981,2.729,4.485,4.082c2.058,1.853,4.129,3.692,6.196,5.536
			C142.941,82.113,143.249,82.336,143.342,82.745"/>
		<path fill="#D2BA2A" d="M125.517,74.276c-0.68-0.379-1.102,0.203-1.565,0.474c-1.77,1.035-1.385,1.133-2.962-0.375
			c-2.157-2.062-4.236-4.208-6.398-6.264c-1.136-1.08-1.334-2.234-0.713-3.635c0.979-2.21,2.225-4.225,4.064-5.828
			c0.462-0.401,0.98-0.768,1.617-0.495c0.843,0.362,1.57,0.288,2.283-0.302c0.481-0.399,0.982-0.242,1.418,0.134
			c1.532,1.327,2.966,2.725,3.723,4.68c0.807,2.085,1.683,4.144,2.082,6.361c0.01,0.708,0.034,1.413,0.448,2.032
			c-0.302,0.313-0.602,0.627-0.903,0.94c-0.903,0.187-1.634,0.668-2.256,1.33c-0.237,0.093-0.47,0.189-0.412,0.516l0.029-0.024
			c-0.326-0.007-0.667-0.029-0.471,0.477L125.517,74.276z"/>
		<path fill="#D3BC2A" d="M129.511,71.056c-0.414-0.619-0.438-1.324-0.448-2.032c0.548-0.117,0.655-0.562,0.689-1.008
			c0.079-1.035,0.111-2.074,0.18-3.11c0.028-0.422,0.419-0.6,0.793-0.39c0.678,0.382,1.137,0.816,1.096,1.737
			c-0.046,1.037,0.113,1.091,0.945,0.905c1.73-0.389,1.859-0.305,2.091,1.367c0.108,0.78-0.054,1.066-0.843,1.292
			C132.518,70.246,131.012,70.645,129.511,71.056"/>
		<path fill="#D2BB2A" d="M80.234,56.137c0.185-0.086,0.366-0.21,0.566-0.261c3.766-0.961,7.532-1.922,11.302-2.864
			c1.015-0.253,1.058-0.237,1.576,0.719c1.602,2.958,3.177,5.932,4.768,8.896c2.898,5.401,5.803,10.801,8.704,16.202
			c0.318,0.592,0.646,1.182,0.939,1.786c0.408,0.841,0.292,1.071-0.592,1.199c-3.174,0.463-6.347,0.934-9.524,1.374
			c-1.056,0.146-1.146,0.084-1.565-0.82c-0.408-0.882-0.725-1.807-1.154-2.677c-0.479-0.97-0.587-1.897-0.405-3.002
			c0.375-2.257,0.124-4.475-1.226-6.446c-1.49-2.175-3.532-3.393-6.171-3.548c-1.042-0.062-2.089-0.042-3.133-0.082
			c-0.119-0.005-0.252-0.134-0.345-0.237c-0.183-0.207-0.103-0.445,0.061-0.594c0.33-0.301,0.707-0.55,1.047-0.84
			c0.327-0.279,0.825-0.435,0.825-0.97c0-0.4-1.019-1.553-1.442-1.617c-0.192-0.029-0.429,0.061-0.609,0.163
			c-0.647,0.369-1.26,0.81-1.924,1.147c-3.655,1.859-7.422-0.22-8.379-3.388c-0.19-0.628-0.228-1.336-0.929-1.713
			c-0.146-0.078-0.264-0.387-0.242-0.573c0.168-1.498,0-2.973-0.2-4.453c-0.057-0.421,0.355-0.69,0.713-0.395
			c0.545,0.448,1.146,0.248,1.701,0.324c0.757,0.104,1.39,0.354,1.959,0.843c0.477,0.408,0.595,0.68,0.136,1.083
			c-1.205,1.06-1.155,2.735-2.039,3.951c-0.157,0.215-0.004,0.733,0.125,1.066c0.796,2.054,3.041,3.219,5.303,2.788
			c1.132-0.216,2.097-0.776,2.985-1.479c0.443-0.351,0.503-0.697,0.166-1.153c-0.712-0.962-1.474-1.886-2.172-2.856
			C80.724,57.244,80.194,56.861,80.234,56.137"/>
	</g>
</g>
</svg>
